<?xml version="1.0" encoding="utf-8"?>
<!-- Generator: Adobe Illustrator 21.1.0, SVG Export Plug-In . SVG Version: 6.00 Build 0)  -->
<svg version="1.1" id="Layer_1" xmlns="http://www.w3.org/2000/svg" xmlns:xlink="http://www.w3.org/1999/xlink" x="0px" y="0px"
	 viewBox="0 0 163 20" style="enable-background:new 0 0 163 20;" xml:space="preserve">
<style type="text/css">
	.st0{fill:#FFFFFF;}
	.st1{fill:#FAA71D;}
	.st2{fill:#1281C5;}
	.st3{fill:#0B83C6;}
	.st4{fill:#FAA71B;}
</style>
<g>
	<path class="st3" d="M83.8,12c-0.4-2.1-1.6-4.1-5.1-4.4c-0.1,0-11.9,0-11.9,0c-0.4,0-0.7-0.1-1-0.3c-0.3-0.2-0.5-0.5-0.6-1
		c0-0.1,0-0.2,0-0.3c0-0.9,0.7-1.6,1.6-1.6h7.4c2.2,0,2.7,0.4,2.9,1.3c0.1,0.4,0.4,0.8,0.9,0.8h0h0h5.1V5.8c0-3.4-0.6-5.8-7.6-5.8
		H64.9c-0.2,0-1.1,0-1.4,0.1c-1.9,0.4-3.9,2-4.1,4.5c0,0.2-0.1,0.8-0.1,1.6c0,0.6,0.1,1.5,0.1,1.7c0,0.2,0.1,0.4,0.1,0.6
		c0.1,0.3,0.2,0.6,0.3,0.9c0.7,1.6,2.5,2.7,4.7,2.9c0.1,0,11.8,0,11.9,0c0.9,0.1,1.6,0.6,1.6,1.6c0,0.7-0.4,1.1-0.7,1.3
		c-0.4,0.3-1,0.3-1,0.3h-8.5c-1.5,0-2.3-0.1-2.5-1.5v0c-0.1-0.4-0.4-0.8-0.9-0.8c0,0,0,0,0,0c0,0,0,0,0,0h0h-5.1v1.3
		c0,4.2,2.2,5.3,7.6,5.3h11.4c0.2,0,1.1,0,1.4-0.1c1.9-0.4,3.9-2,4.1-4.5c0-0.2,0.1-0.8,0.1-1.6C84,13.1,83.9,12.2,83.8,12"/>
	<path class="st3" d="M20.4,10.6c-0.2-0.2-0.3-0.4-0.3-0.6c0-0.2,0.1-0.5,0.3-0.6L30,0.2h-7.6c-0.2,0-0.5,0.1-0.6,0.3h0l-6.6,6.7
		l0,0c-0.4,0.3-0.9,0.5-1.4,0.5h-2c-0.2,0-0.4-0.2-0.4-0.4v0h0V1.1c0-0.4-0.4-0.8-0.8-0.8h-5v7.5H0v2.4v0c0,1.2,1,2.2,2.2,2.2h3.3
		v7.5h4.9h0c0.5,0,0.9-0.4,0.9-0.9v-6.2h0c0-0.2,0.2-0.4,0.4-0.4c0,0,1.9,0,1.9,0c0.6,0,1.1,0.2,1.5,0.6l6.5,6.6
		c0.2,0.2,0.4,0.3,0.6,0.3H30L20.4,10.6L20.4,10.6z"/>
	<path class="st3" d="M41,12.2l3.9-7.6l3.9,7.6H41z M52.3,19.3c0.1,0.3,0.4,0.5,0.8,0.5h5.9L49.2,0.7c-0.1-0.3-0.4-0.5-0.8-0.5H45
		h-0.2h-3.5c-0.3,0-0.6,0.2-0.8,0.4l-9.7,19.1h5.8c0.3,0,0.6-0.2,0.8-0.5l1.4-2.7c0.1-0.2,0.2-0.3,0.4-0.3h11.4
		c0.2,0,0.3,0.1,0.4,0.3L52.3,19.3L52.3,19.3z"/>
	<path class="st4" d="M162.9,12c-0.4-2.1-1.6-4.1-5.1-4.4c-0.1,0-11.9,0-11.9,0c-0.4,0-0.7-0.1-1-0.3c-0.3-0.2-0.5-0.5-0.6-1
		c0-0.1,0-0.2,0-0.3c0-0.9,0.7-1.6,1.6-1.6h7.4c2.2,0,2.7,0.4,2.9,1.3c0.1,0.4,0.4,0.8,0.9,0.8h0h0h5.1V5.8c0-3.4-0.6-5.8-7.6-5.8
		h-10.7c-0.2,0-1.1,0-1.4,0.1c-1.9,0.4-3.9,2-4.1,4.5c0,0.2-0.1,0.8-0.1,1.6c0,0.6,0.1,1.5,0.1,1.7c0,0.2,0.1,0.4,0.1,0.6
		c0.1,0.3,0.2,0.6,0.3,0.9c0.7,1.6,2.5,2.7,4.7,2.9c0.1,0,11.8,0,11.9,0c0.9,0.1,1.6,0.6,1.6,1.6c0,0.7-0.4,1.1-0.7,1.3
		c-0.4,0.3-1,0.3-1,0.3h-8.5c-1.5,0-2.3-0.1-2.5-1.5v0c-0.1-0.4-0.4-0.8-0.9-0.8c0,0,0,0,0,0c0,0,0,0,0,0h0h-5.1v1.3
		c0,4.2,2.2,5.3,7.6,5.3h11.4c0.2,0,1.1,0,1.4-0.1c1.9-0.4,3.9-2,4.1-4.5c0-0.2,0.1-0.8,0.1-1.6C163.1,13.1,162.9,12.2,162.9,12"/>
	<path class="st4" d="M85.7,19.8h4.9h0c0.5,0,0.9-0.4,0.9-0.9v-6.2h0c0-0.2,0.2-0.4,0.4-0.4c0,0,1.9,0,1.9,0c0.6,0,1.1,0.2,1.5,0.6
		l6.5,6.6c0.2,0.2,0.4,0.3,0.6,0.3h7.6l-9.6-9.2v0c-0.2-0.2-0.3-0.4-0.3-0.6c0-0.2,0.1-0.5,0.3-0.6l9.6-9.1h-7.6
		c-0.2,0-0.5,0.1-0.6,0.3v0l-6.6,6.7l0,0C95,7.5,94.5,7.7,94,7.7h-2c-0.2,0-0.4-0.2-0.4-0.4v0h0V1.1c0-0.4-0.4-0.8-0.8-0.8h-5V19.8z
		"/>
	<path class="st4" d="M131.4,0.2c-0.5,0-0.9,0.4-0.9,0.9v11.7c0,1.2-1,2.2-2.2,2.2v0h-8v0c-1.2,0-2.2-1-2.2-2.2h0v-1.2v-0.1V1.1
		c0-0.5-0.4-0.8-0.9-0.8H112v14.2c0.1,3,2.5,5.5,5.5,5.6v0H131c3.1,0,5.6-2.5,5.7-5.6h0V0.2H131.4z"/>
</g>
</svg>
